<svg preserveAspectRatio="xMidYMid meet" width="100%" height="100%" overflow="visible" style="display: block;" viewBox="0 0 72 72" fill="none" xmlns="http://www.w3.org/2000/svg">
<g id="Gokarna Resort logo-01 1">
<path id="Vector" d="M42.616 15.2163C42.616 15.2163 44.2738 31.3731 25.768 37.4481C25.768 37.4481 25.2145 19.2204 42.616 15.2163Z" fill="var(--fill-0, #008C44)"/>
<path id="Vector_2" d="M51.729 27.3681C51.729 27.3681 36.8142 23.9166 27.5613 41.1777C27.5613 41.1777 44.547 44.3529 51.729 27.3681Z" fill="var(--fill-0, #008C44)"/>
<path id="Vector_3" d="M17.3426 41.454C17.3426 41.454 38.3342 22.6737 54.905 40.9014C54.905 40.9014 51.5912 34.272 46.8959 31.5108L48.5546 28.7496C48.5546 28.7496 46.8959 30.1302 45.239 29.5776C43.5821 29.025 36.1247 26.5401 30.0479 27.9198C30.0479 27.9198 25.7684 22.2588 24.3869 21.9825C24.3869 21.9825 25.0763 21.1545 26.5964 21.1545C26.5964 21.1545 25.3535 19.3581 22.5923 21.7062C22.5923 21.7062 21.2108 21.7062 20.6582 21.9825C20.1065 22.2588 18.8636 22.3965 18.8636 22.3965C18.8636 22.3965 19.0022 23.3631 19.6925 23.3631C20.3828 23.3631 23.4212 23.6403 24.5264 25.4349C25.6316 27.2313 28.9436 32.3397 26.8745 33.5826C24.8027 34.8246 17.3444 39.3822 17.3444 41.454" fill="var(--fill-0, #D6B229)"/>
<path id="Vector_4" d="M23.2821 21.9168C23.1687 21.9168 23.0751 21.8277 23.0715 21.7134C22.9392 17.7309 22.6197 13.275 22.2903 12.8628C22.2174 12.7719 22.2327 12.6396 22.3227 12.5667C22.4118 12.4956 22.5459 12.5082 22.6179 12.6C23.1849 13.3083 23.4468 20.3049 23.4927 21.6999C23.4954 21.816 23.4045 21.9132 23.2893 21.9168H23.2821Z" fill="var(--fill-0, #D6B229)"/>
<path id="Vector_5" d="M23.2812 17.3601C23.2353 17.3601 23.1894 17.3457 23.1507 17.3151C23.0607 17.2431 23.0436 17.1117 23.1147 17.0208L25.6005 13.8438C25.6716 13.752 25.8039 13.7349 25.8957 13.8069C25.9857 13.8789 26.0028 14.0112 25.9308 14.1021L23.4459 17.2791C23.4054 17.3322 23.3433 17.3601 23.2803 17.3601" fill="var(--fill-0, #D6B229)"/>
<path id="Vector_6" d="M24.5248 15.7023C24.4177 15.7023 24.3259 15.6213 24.316 15.5124L24.0388 12.6108C24.028 12.4947 24.1135 12.393 24.2278 12.3813C24.3412 12.3732 24.4465 12.456 24.4573 12.5712L24.7336 15.4719C24.7444 15.588 24.6598 15.6897 24.5455 15.7014C24.5383 15.7014 24.532 15.7014 24.5248 15.7014" fill="var(--fill-0, #D6B229)"/>
<path id="Vector_7" d="M23.0058 18.3267C22.9527 18.3267 22.8978 18.306 22.8564 18.2655L21.0618 16.47C20.9799 16.3881 20.9799 16.2549 21.0618 16.173C21.1437 16.0911 21.2778 16.0911 21.3606 16.173L23.1552 17.9685C23.2371 18.0504 23.2371 18.1836 23.1552 18.2655C23.1138 18.306 23.0598 18.3267 23.0058 18.3267Z" fill="var(--fill-0, #D6B229)"/>
<path id="Vector_8" d="M23.6267 21.3651C23.5754 21.3651 23.525 21.348 23.4854 21.3111C23.399 21.2337 23.3927 21.1005 23.4701 21.0141C23.9309 20.5056 27.9404 16.1091 29.3174 16.1091C29.339 16.1091 29.3606 16.1091 29.3813 16.1127C29.4965 16.1244 29.5802 16.2297 29.5676 16.344C29.5541 16.4601 29.4677 16.5528 29.3354 16.5303C29.3228 16.5285 29.3093 16.5276 29.2967 16.5276C28.4165 16.5276 25.4654 19.4337 23.7824 21.2958C23.7419 21.3417 23.6843 21.3651 23.6267 21.3651Z" fill="var(--fill-0, #D6B229)"/>
<path id="Vector_9" d="M25.7652 18.8784C25.6842 18.8784 25.6077 18.8316 25.5735 18.7515C25.5366 18.666 24.7167 16.6338 28.1295 14.2155C28.2231 14.148 28.3536 14.1696 28.4229 14.265C28.4904 14.3604 28.4688 14.4918 28.3734 14.5584C25.2594 16.7643 25.9533 18.5688 25.9614 18.5859C26.0055 18.693 25.9551 18.8163 25.848 18.8604C25.8219 18.8721 25.794 18.8775 25.7661 18.8775" fill="var(--fill-0, #D6B229)"/>
<path id="Vector_10" d="M26.4574 16.1163C26.3557 16.1163 26.2675 16.0434 26.2495 15.9417C26.101 15.0516 26.9281 13.5225 26.9632 13.4577C27.0199 13.3551 27.1441 13.3182 27.2494 13.374C27.3511 13.4298 27.3871 13.5576 27.3322 13.6593C27.1108 14.0652 26.56 15.2523 26.6635 15.8715C26.6815 15.9867 26.605 16.0947 26.4907 16.1145C26.4799 16.1163 26.4673 16.1172 26.4565 16.1172" fill="var(--fill-0, #D6B229)"/>
<path id="Vector_11" d="M10.5604 46.7334V46.2069L12.4612 46.2033V47.8692C12.1696 48.1023 11.869 48.2787 11.5585 48.3966C11.248 48.5136 10.9303 48.5721 10.6027 48.5721C10.1617 48.5721 9.76033 48.4785 9.39943 48.2895C9.04123 48.0996 8.76763 47.826 8.58493 47.4696C8.40133 47.1132 8.31133 46.7136 8.31133 46.2717C8.31133 45.8298 8.39953 45.4275 8.58223 45.0513C8.76583 44.6715 9.03043 44.3898 9.37243 44.2062C9.71533 44.0226 10.1104 43.9308 10.5568 43.9308C10.8817 43.9308 11.1751 43.9839 11.4361 44.0901C11.698 44.1936 11.9059 44.3412 12.0544 44.5266C12.2029 44.7147 12.3172 44.9604 12.3946 45.261L11.8582 45.4086C11.7907 45.1791 11.7079 45.0009 11.608 44.8704C11.5072 44.7399 11.3641 44.6346 11.1796 44.5572C10.9933 44.4771 10.7872 44.4384 10.5604 44.4384C10.2886 44.4384 10.0537 44.4798 9.85573 44.5626C9.65863 44.6445 9.49843 44.7534 9.37513 44.8875C9.25453 45.0225 9.16093 45.171 9.09523 45.3321C8.97913 45.6093 8.92243 45.9108 8.92243 46.2339C8.92243 46.6335 8.99083 46.9692 9.12853 47.2383C9.26803 47.5083 9.46783 47.7081 9.73243 47.8386C9.99523 47.9691 10.2742 48.0339 10.5712 48.0339C10.8286 48.0339 11.0788 47.9844 11.3245 47.8872C11.5693 47.7873 11.7538 47.6802 11.8816 47.5686V46.7334H10.5622H10.5604Z" fill="var(--fill-0, #008C44)"/>
<path id="Vector_12" d="M13.6008 46.3176C13.6008 46.8585 13.7457 47.2842 14.0355 47.5965C14.328 47.907 14.6925 48.0618 15.1326 48.0618C15.5727 48.0618 15.9471 47.9052 16.2342 47.5902C16.524 47.2752 16.6689 46.8297 16.6689 46.2519C16.6689 45.8874 16.6059 45.5688 16.4817 45.297C16.3593 45.0243 16.1784 44.8128 15.939 44.6634C15.7023 44.5113 15.4368 44.4375 15.1416 44.4375C14.7204 44.4375 14.3586 44.5824 14.0535 44.8722C13.752 45.1593 13.5999 45.6417 13.5999 46.3185M12.9879 46.3068C12.9879 45.5625 13.1895 44.9802 13.5891 44.5581C13.9896 44.1369 14.5071 43.9245 15.1389 43.9245C15.5529 43.9245 15.9273 44.0244 16.2603 44.2215C16.5933 44.4195 16.8462 44.6958 17.019 45.0513C17.1936 45.405 17.2836 45.8055 17.2836 46.2555C17.2836 46.7055 17.1918 47.1168 17.0082 47.4768C16.8246 47.8359 16.5636 48.1077 16.227 48.294C15.8904 48.4776 15.5277 48.5685 15.1371 48.5685C14.715 48.5685 14.3361 48.4668 14.004 48.2625C13.671 48.0582 13.419 47.7792 13.248 47.4255C13.077 47.0745 12.9897 46.7001 12.9897 46.305" fill="var(--fill-0, #008C44)"/>
<path id="Vector_13" d="M17.8566 48.4938V44.0055H18.4506V46.2312L20.679 44.0055H21.4836L19.6017 45.8235L21.5673 48.4938H20.7834L19.1841 46.2213L18.4506 46.9386V48.4938H17.8566Z" fill="var(--fill-0, #008C44)"/>
<path id="Vector_14" d="M22.6971 46.6506H24.2199L23.751 45.4077C23.607 45.0297 23.5017 44.7201 23.4324 44.4771C23.3748 44.7651 23.2947 45.0504 23.1912 45.3357L22.6971 46.6515V46.6506ZM21.402 48.4938L23.1264 44.0055H23.7663L25.6032 48.4938H24.9273L24.4026 47.1339H22.5261L22.0329 48.4938H21.402Z" fill="var(--fill-0, #008C44)"/>
<path id="Vector_15" d="M26.5131 45.9864H27.7902C28.0602 45.9864 28.2735 45.9585 28.4265 45.9036C28.5795 45.846 28.6965 45.7569 28.7757 45.6345C28.8558 45.5094 28.8954 45.3753 28.8954 45.2304C28.8954 45.0189 28.8171 44.8443 28.6623 44.7066C28.5093 44.5698 28.2672 44.5014 27.9342 44.5014H26.5131V45.9864ZM25.9191 48.4938V44.0055H27.9099C28.3095 44.0055 28.6137 44.0451 28.8198 44.127C29.0295 44.208 29.1969 44.3502 29.3211 44.5545C29.4453 44.7588 29.5074 44.9838 29.5074 45.2304C29.5074 45.549 29.4048 45.8163 29.1987 46.035C28.9926 46.2537 28.674 46.3923 28.2438 46.4517C28.4004 46.5264 28.521 46.602 28.6011 46.6749C28.7748 46.8342 28.9377 47.0322 29.0934 47.2716L29.8737 48.4938H29.1276L28.5336 47.5605C28.3581 47.2905 28.2177 47.0844 28.1052 46.9413C27.9936 46.7982 27.8901 46.6974 27.8028 46.6407C27.7128 46.5831 27.6246 46.5435 27.5328 46.5201C27.4653 46.5066 27.3555 46.4994 27.2016 46.4994H26.5131V48.4929H25.9191V48.4938Z" fill="var(--fill-0, #008C44)"/>
<path id="Vector_16" d="M30.2645 48.4938V44.0055H30.8738L33.2318 47.529V44.0055H33.8024V48.4938H33.1922L30.8333 44.9667V48.4938H30.2645Z" fill="var(--fill-0, #008C44)"/>
<path id="Vector_17" d="M35.433 46.6506H36.9558L36.4869 45.4077C36.3429 45.0297 36.2376 44.7201 36.1683 44.4771C36.1107 44.7651 36.0306 45.0504 35.9253 45.3357L35.433 46.6515V46.6506ZM34.1379 48.4938L35.8632 44.0055H36.5022L38.3391 48.4938H37.6632L37.1385 47.1339H35.262L34.7688 48.4938H34.1379Z" fill="var(--fill-0, #008C44)"/>
<path id="Vector_18" d="M40.227 48.4938V44.0055H43.2555V44.5347H40.821V45.9243H42.9279V46.4535H40.821V48.4938H40.227Z" fill="var(--fill-0, #008C44)"/>
<path id="Vector_19" d="M44.2899 46.3176C44.2899 46.8585 44.4348 47.2842 44.7246 47.5965C45.0171 47.907 45.3816 48.0618 45.8217 48.0618C46.2618 48.0618 46.6362 47.9052 46.9233 47.5902C47.214 47.2752 47.358 46.8297 47.358 46.2519C47.358 45.8874 47.295 45.5688 47.1708 45.297C47.0493 45.0243 46.8693 44.8128 46.629 44.6634C46.3923 44.5113 46.1268 44.4375 45.8316 44.4375C45.4104 44.4375 45.0486 44.5824 44.7435 44.8722C44.442 45.1593 44.2899 45.6417 44.2899 46.3185M43.677 46.3068C43.677 45.5625 43.8786 44.9802 44.2782 44.5581C44.6787 44.1369 45.1962 43.9245 45.828 43.9245C46.242 43.9245 46.6164 44.0244 46.9494 44.2215C47.2824 44.4195 47.5353 44.6958 47.7081 45.0513C47.8827 45.405 47.9727 45.8055 47.9727 46.2555C47.9727 46.7055 47.8809 47.1168 47.6973 47.4768C47.5128 47.8359 47.2527 48.1077 46.9161 48.294C46.5795 48.4776 46.2168 48.5685 45.8262 48.5685C45.4032 48.5685 45.0252 48.4668 44.6931 48.2625C44.3601 48.0582 44.1081 47.7792 43.9371 47.4255C43.7661 47.0745 43.6788 46.7001 43.6788 46.305" fill="var(--fill-0, #008C44)"/>
<path id="Vector_20" d="M49.1725 45.9864H50.4496C50.7196 45.9864 50.9329 45.9585 51.0859 45.9036C51.2389 45.846 51.3559 45.7569 51.4351 45.6345C51.5152 45.5094 51.5548 45.3753 51.5548 45.2304C51.5548 45.0189 51.4774 44.8443 51.3217 44.7066C51.1696 44.5698 50.9257 44.5014 50.5936 44.5014H49.1725V45.9864ZM48.5785 48.4938V44.0055H50.5693C50.9689 44.0055 51.274 44.0451 51.481 44.127C51.6898 44.208 51.8563 44.3502 51.9805 44.5545C52.1047 44.7588 52.1677 44.9838 52.1677 45.2304C52.1677 45.549 52.0633 45.8163 51.8581 46.035C51.6511 46.2537 51.3334 46.3923 50.9023 46.4517C51.0607 46.5264 51.1795 46.602 51.2605 46.6749C51.4342 46.8342 51.5971 47.0322 51.7537 47.2716L52.534 48.4938H51.787L51.193 47.5605C51.0202 47.2905 50.8771 47.0844 50.7646 46.9413C50.653 46.7982 50.5513 46.6974 50.4622 46.6407C50.3749 46.5831 50.284 46.5435 50.1922 46.5201C50.1247 46.5066 50.0149 46.4994 49.8628 46.4994H49.1734V48.4929H48.5794L48.5785 48.4938Z" fill="var(--fill-0, #008C44)"/>
<path id="Vector_21" d="M52.9426 48.4938V44.0055H56.1871V44.5347H53.5366V45.9099H56.0188V46.4355H53.5366V47.9637H56.2924V48.4938H52.9426Z" fill="var(--fill-0, #008C44)"/>
<path id="Vector_22" d="M56.7419 47.0511L57.3035 47.0025C57.3287 47.2257 57.3917 47.412 57.4871 47.5569C57.5834 47.7 57.7364 47.8161 57.9389 47.9061C58.1441 47.9943 58.3736 48.0384 58.6283 48.0384C58.8551 48.0384 59.0558 48.0042 59.2286 47.9367C59.4005 47.8692 59.5301 47.7774 59.6138 47.6613C59.7002 47.5425 59.7425 47.4129 59.7425 47.2752C59.7425 47.1375 59.7038 47.0115 59.621 46.9071C59.5391 46.8018 59.405 46.7127 59.2169 46.6416C59.0963 46.5948 58.8299 46.521 58.4177 46.4238C58.0055 46.3248 57.7166 46.2294 57.551 46.143C57.3359 46.0305 57.1766 45.8919 57.0713 45.7254C56.9669 45.5589 56.9147 45.3726 56.9147 45.1665C56.9147 44.9388 56.9795 44.7273 57.1082 44.5329C57.2351 44.334 57.4241 44.1837 57.6707 44.082C57.9173 43.9803 58.1927 43.9299 58.4951 43.9299C58.8272 43.9299 59.1206 43.9839 59.3735 44.0919C59.6282 44.199 59.8244 44.3556 59.9612 44.5626C60.098 44.7714 60.1718 45.0063 60.1817 45.2709L59.612 45.3132C59.5814 45.0297 59.4779 44.8146 59.2997 44.6706C59.1242 44.5257 58.865 44.4546 58.5194 44.4546C58.1738 44.4546 57.8975 44.5203 57.7319 44.6526C57.5672 44.7831 57.4871 44.9415 57.4871 45.1269C57.4871 45.288 57.5447 45.4212 57.6608 45.5256C57.7751 45.6291 58.0739 45.7371 58.5554 45.8478C59.0387 45.9567 59.3699 46.0494 59.549 46.1331C59.81 46.2537 60.0035 46.4058 60.1277 46.5912C60.2519 46.7748 60.3149 46.9881 60.3149 47.2284C60.3149 47.4687 60.2465 47.6928 60.1097 47.9043C59.972 48.1149 59.7749 48.2796 59.5166 48.3984C59.2637 48.5145 58.9748 48.5712 58.6544 48.5712C58.2494 48.5712 57.9083 48.5127 57.632 48.3948C57.3566 48.276 57.1433 48.0996 56.9858 47.862C56.831 47.6226 56.7491 47.3535 56.741 47.0529" fill="var(--fill-0, #008C44)"/>
<path id="Vector_23" d="M62.1025 48.4938V44.5347H60.6238V44.0055H64.1824V44.5347H62.6965V48.4938H62.1025Z" fill="var(--fill-0, #008C44)"/>
<path id="Vector_24" d="M33.3082 54.3339C33.3082 54.3339 34.2523 50.0868 38.6587 50.2434C38.6587 50.2434 38.8162 54.018 33.3082 54.3339Z" fill="var(--fill-0, #D6B229)"/>
<path id="Vector_25" d="M63.836 52.6392H39.761V51.9381H63.836V52.6392ZM32.8382 52.6392H7.81914V51.9381H32.8373V52.6392H32.8382Z" fill="var(--fill-0, #D6B229)"/>
<path id="Vector_26" d="M24.3135 57.4272H24.7671C25.0434 57.4272 25.2189 57.4164 25.2936 57.3921C25.3701 57.3669 25.4304 57.3174 25.479 57.2427C25.5249 57.1689 25.5483 57.0717 25.5483 56.9493C25.5483 56.8323 25.5249 56.7396 25.479 56.6676C25.4304 56.5956 25.3683 56.547 25.2864 56.5209C25.2288 56.5029 25.065 56.493 24.7914 56.493H24.3135V57.4281V57.4272ZM23.706 59.553V55.8675H24.9894C25.3179 55.8675 25.5537 55.9008 25.6932 55.9692C25.8336 56.0349 25.9506 56.1492 26.0406 56.313C26.1306 56.4759 26.1765 56.6712 26.1765 56.8998C26.1765 57.186 26.1063 57.42 25.9677 57.5946C25.83 57.771 25.6338 57.8817 25.3791 57.9276C25.5096 58.0212 25.6176 58.1247 25.7031 58.2363C25.7886 58.3461 25.9047 58.545 26.0532 58.8339L26.4195 59.5521H25.6932L25.2513 58.7502C25.092 58.4604 24.984 58.2795 24.9255 58.2075C24.8706 58.1337 24.8085 58.0833 24.7455 58.0563C24.6825 58.0284 24.5799 58.014 24.4386 58.0131H24.3126V59.5512H23.7051L23.706 59.553Z" fill="var(--fill-0, #008C44)"/>
<path id="Vector_27" d="M28.4238 59.5539V55.8675H30.6657V56.4921H29.0331V57.3075H30.5514V57.9294H29.0331V58.932H30.7206V59.5539H28.4238Z" fill="var(--fill-0, #008C44)"/>
<path id="Vector_28" d="M32.7551 58.3542L33.3509 58.284C33.4184 58.7538 33.6371 58.9896 34.0097 58.9896C34.1924 58.9896 34.3382 58.9419 34.4435 58.8465C34.5506 58.7493 34.6028 58.6305 34.6028 58.4865C34.6028 58.4028 34.5848 58.3317 34.5479 58.2723C34.511 58.2147 34.4552 58.167 34.3796 58.1292C34.3031 58.0914 34.1213 58.0275 33.8315 57.9384C33.5732 57.8601 33.3824 57.7746 33.2618 57.6819C33.1376 57.5901 33.044 57.4695 32.9729 57.3192C32.9018 57.168 32.8658 57.0069 32.8658 56.835C32.8658 56.6325 32.9117 56.4525 33.0017 56.2923C33.0944 56.1303 33.2204 56.0088 33.3824 55.9278C33.5417 55.8459 33.7406 55.8036 33.9773 55.8036C34.3328 55.8036 34.61 55.899 34.8098 56.0925C35.0078 56.2851 35.114 56.5614 35.1257 56.9196L34.5146 56.952C34.4876 56.754 34.43 56.6163 34.3409 56.538C34.2527 56.4588 34.1258 56.4192 33.962 56.4192C33.7982 56.4192 33.6704 56.4552 33.584 56.5227C33.4949 56.5911 33.4499 56.6766 33.4499 56.7783C33.4499 56.88 33.4886 56.9646 33.5705 57.033C33.6515 57.1023 33.836 57.1779 34.1258 57.2589C34.4336 57.348 34.6541 57.4425 34.79 57.5406C34.9277 57.6369 35.033 57.7647 35.1041 57.9186C35.177 58.0743 35.2121 58.2615 35.2121 58.482C35.2121 58.8033 35.114 59.0724 34.9169 59.2893C34.7216 59.5062 34.4129 59.616 33.9935 59.616C33.2537 59.616 32.8415 59.1948 32.7578 58.3524" fill="var(--fill-0, #008C44)"/>
<path id="Vector_29" d="M37.902 57.708C37.902 58.1328 37.9812 58.4505 38.1432 58.6638C38.3025 58.8744 38.5032 58.9788 38.7408 58.9788C38.9784 58.9788 39.1791 58.8762 39.3366 58.6647C39.4941 58.455 39.5733 58.131 39.5733 57.6945C39.5733 57.258 39.4959 56.952 39.3429 56.7468C39.1899 56.5425 38.9892 56.4408 38.7417 56.4408C38.4942 56.4408 38.2917 56.5434 38.1351 56.7495C37.9812 56.9556 37.9029 57.2751 37.9029 57.7071M37.2738 57.7332C37.2738 57.2949 37.3386 56.9331 37.4673 56.6496C37.5978 56.3652 37.7679 56.1528 37.9776 56.0151C38.1873 55.8756 38.4411 55.8063 38.7381 55.8063C39.171 55.8063 39.5229 55.9719 39.7947 56.3013C40.0683 56.6307 40.2051 57.1023 40.2051 57.7116C40.2051 58.3209 40.0602 58.8105 39.7722 59.1561C39.5193 59.4639 39.1755 59.6169 38.7417 59.6169C38.3079 59.6169 37.9587 59.4648 37.7067 59.1615C37.4178 58.8141 37.2738 58.3389 37.2738 57.7332Z" fill="var(--fill-0, #008C44)"/>
<path id="Vector_30" d="M42.9615 57.4272H43.4133C43.6896 57.4272 43.866 57.4164 43.9416 57.3921C44.0163 57.3669 44.0766 57.3174 44.1243 57.2427C44.1711 57.1689 44.1945 57.0717 44.1945 56.9493C44.1945 56.8323 44.1711 56.7396 44.1243 56.6676C44.0766 56.5956 44.0136 56.547 43.9326 56.5209C43.875 56.5029 43.7103 56.493 43.4367 56.493H42.9606V57.4281L42.9615 57.4272ZM42.3504 59.553V55.8675H43.6338C43.9641 55.8675 44.1999 55.9008 44.3385 55.9692C44.4798 56.0349 44.5968 56.1492 44.685 56.313C44.7768 56.4759 44.8227 56.6712 44.8227 56.8998C44.8227 57.186 44.7525 57.42 44.6139 57.5946C44.4762 57.771 44.2782 57.8817 44.0253 57.9276C44.1558 58.0212 44.2647 58.1247 44.3493 58.2363C44.4339 58.3461 44.5509 58.545 44.6985 58.8339L45.0657 59.5521H44.3385L43.8966 58.7502C43.7382 58.4604 43.6302 58.2795 43.5726 58.2075C43.515 58.1337 43.4556 58.0833 43.3926 58.0563C43.3296 58.0284 43.2261 58.014 43.0857 58.0131H42.9615V59.5512H42.3504V59.553Z" fill="var(--fill-0, #008C44)"/>
<path id="Vector_31" d="M47.7492 59.5539V56.4921H46.852V55.8675H49.2523V56.4921H48.3567V59.5539H47.7492Z" fill="var(--fill-0, #008C44)"/>
</g>
</svg>
