<svg preserveAspectRatio="xMidYMid meet" width="100%" height="100%" overflow="visible" style="display: block;" viewBox="0 0 111.678 74.2713" fill="none" xmlns="http://www.w3.org/2000/svg">
<g id="Lesherpa logo-02 1">
<g id="Group">
<path id="Vector" d="M35.5998 48.6367H35.3184V46.5524H36.2827C36.626 46.5524 36.9674 46.6706 36.9674 47.1134C36.9674 47.421 36.8117 47.5355 36.6766 47.6124C36.7948 47.6612 36.9149 47.7137 36.9261 48.0045L36.943 48.3816C36.9449 48.4979 36.9599 48.5411 37.0481 48.5898V48.6367H36.7029C36.6616 48.5092 36.6541 48.1921 36.6541 48.1152C36.6541 47.9426 36.6203 47.7437 36.2827 47.7437H35.6016V48.6386L35.5998 48.6367ZM35.5998 47.5017H36.2526C36.459 47.5017 36.6766 47.4492 36.6766 47.1415C36.6766 46.8338 36.4402 46.7926 36.3014 46.7926H35.5998V47.5017Z" fill="var(--fill-0, white)"/>
<path id="Vector_2" d="M40.3458 48.6367H38.8074V46.5524H40.3252V46.8019H39.0888V47.4398H40.2295V47.6912H39.0888V48.3872H40.3458V48.6367Z" fill="var(--fill-0, white)"/>
<path id="Vector_3" d="M43.3697 47.1621C43.3547 46.8394 43.0883 46.7381 42.8538 46.7381C42.6775 46.7381 42.3773 46.7869 42.3773 47.104C42.3773 47.2822 42.503 47.3403 42.6249 47.3685L43.2197 47.5054C43.4898 47.5692 43.6924 47.7324 43.6924 48.0626C43.6924 48.556 43.2347 48.693 42.8763 48.693C42.4899 48.693 42.3398 48.5767 42.246 48.4922C42.0696 48.3328 42.034 48.1583 42.034 47.9632H42.2985C42.2985 48.3403 42.6062 48.451 42.8745 48.451C43.0771 48.451 43.4204 48.3984 43.4204 48.1001C43.4204 47.8825 43.3191 47.8131 42.9758 47.7306L42.548 47.633C42.4111 47.6011 42.1034 47.5054 42.1034 47.1415C42.1034 46.8169 42.3154 46.498 42.8201 46.498C43.5498 46.498 43.6211 46.9332 43.6324 47.1621H43.3679H43.3697Z" fill="var(--fill-0, white)"/>
<path id="Vector_4" d="M45.2668 46.5524H46.959V46.8019H46.2536V48.6367H45.9722V46.8019H45.2668V46.5524Z" fill="var(--fill-0, white)"/>
<path id="Vector_5" d="M48.5986 48.0308L48.381 48.6367H48.0902L48.8744 46.5524H49.1934L49.9475 48.6367H49.6399L49.4335 48.0308H48.5968H48.5986ZM49.3322 47.7812L49.0245 46.8639H49.0189L48.6849 47.7812H49.3322Z" fill="var(--fill-0, white)"/>
<path id="Vector_6" d="M53.108 46.5525V47.9052C53.108 48.3311 52.8416 48.6913 52.2694 48.6913C51.6972 48.6913 51.4684 48.331 51.4684 47.9427V46.5525H51.7498V47.8639C51.7498 48.3179 52.0256 48.4417 52.2788 48.4417C52.5321 48.4417 52.8285 48.3217 52.8285 47.8695V46.5507H53.1099L53.108 46.5525Z" fill="var(--fill-0, white)"/>
<path id="Vector_7" d="M55.2685 48.6367H54.9871V46.5524H55.9514C56.2947 46.5524 56.6362 46.6706 56.6362 47.1134C56.6362 47.421 56.4805 47.5355 56.3454 47.6124C56.4636 47.6612 56.5836 47.7137 56.5949 48.0045L56.6118 48.3816C56.6137 48.4979 56.6287 48.5411 56.7168 48.5898V48.6367H56.3716C56.3304 48.5092 56.321 48.1921 56.321 48.1152C56.321 47.9426 56.2872 47.7437 55.9495 47.7437H55.2685V48.6386V48.6367ZM55.2685 47.5017H55.9214C56.1278 47.5017 56.3454 47.4492 56.3454 47.1415C56.3454 46.8338 56.109 46.7926 55.9702 46.7926H55.2685V47.5017Z" fill="var(--fill-0, white)"/>
<path id="Vector_8" d="M58.7768 48.0308L58.5592 48.6367H58.2684L59.0526 46.5524H59.3715L60.1257 48.6367H59.818L59.6116 48.0308H58.7749H58.7768ZM59.5122 47.7812L59.2045 46.8639H59.1989L58.8649 47.7812H59.5122Z" fill="var(--fill-0, white)"/>
<path id="Vector_9" d="M63.1648 46.5524H63.4387V48.6367H63.1216L62.0616 46.952H62.056V48.6367H61.784V46.5524H62.1179L63.161 48.2371H63.1648V46.5524Z" fill="var(--fill-0, white)"/>
<path id="Vector_10" d="M65.0996 46.5524H66.7918V46.8019H66.0864V48.6367H65.805V46.8019H65.0996V46.5524Z" fill="var(--fill-0, white)"/>
</g>
<path id="Vector_11" d="M33.9665 38.3016C34.4843 38.1984 36.276 36.6469 35.7244 36.0259C35.2535 35.4969 33.5519 37.7838 33.9665 38.3016ZM31.9667 28.9926C31.9667 28.9926 32.0361 27.9589 31.4489 28.3041C30.856 28.653 25.1734 32.544 23.1736 37.7857C22.8209 38.7087 23.8977 39.0276 24.7588 39.1646C25.6218 39.3015 30.5165 39.3015 32.5501 38.855C32.5501 38.855 32.3775 36.6131 34.4112 35.2699C36.6512 33.7878 37.9625 37.0971 34.4806 39.097C34.0922 39.3203 35.9983 40.5116 39.5835 39.3034C39.5835 39.3034 39.9624 39.5792 39.514 39.9938C39.0657 40.4065 35.4111 41.4065 33.0323 39.7518C33.0323 39.7518 28.8599 40.9937 24.999 40.5453C21.138 40.097 21.3782 38.8907 21.4476 38.3053C21.517 37.72 23.0685 33.0655 28.102 28.6868C30.5371 26.5687 33.4112 25.3774 33.7226 27.4805C33.7226 27.4805 33.9647 28.1709 33.308 28.895C32.6533 29.6192 31.9629 28.9982 31.9629 28.9982M59.9199 38.3016C60.4377 38.1984 62.2294 36.6469 61.6778 36.0259C61.2069 35.4969 59.5053 37.7838 59.9199 38.3016ZM55.438 26.5781C55.438 26.5781 55.8526 25.5781 57.0233 25.5781C58.194 25.5781 57.678 26.1297 57.4023 26.3361C57.1265 26.5424 55.7476 29.2327 54.4024 32.6115C53.0573 35.9903 51.8848 38.6787 51.8848 38.6787C51.8848 38.6787 54.091 36.8176 54.47 36.5418C54.8489 36.2661 55.3667 35.9209 55.9521 37.2322C56.5374 38.5417 56.8151 39.6448 57.8488 39.3691L58.5392 39.0239C58.5392 39.0239 58.3328 36.403 60.4696 35.1967C61.9761 34.3468 63.0548 35.8177 62.3663 37.1628C62.038 37.8025 61.4358 38.8513 60.1938 39.2659C60.1938 39.2659 60.6422 40.0594 61.9179 39.2996C63.1937 38.5417 64.8146 37.5418 65.882 35.7483C65.882 35.7483 66.0546 35.8852 66.5724 36.0935C67.0902 36.2998 67.9176 36.9208 67.7093 37.2322C67.3679 37.7444 66.6756 39.127 67.3304 39.4385C67.9851 39.7499 69.848 38.129 70.6397 37.266C71.4333 36.403 71.5008 36.3692 71.5008 36.3692C71.5008 36.3692 72.225 36.887 72.225 37.0934C72.225 37.2998 72.1912 37.7144 72.1912 37.7144C72.1912 37.7144 73.4332 36.4743 74.5007 36.3017C75.57 36.1291 75.8101 36.9921 75.3636 37.75C74.9153 38.5079 74.2249 38.992 74.4669 39.3709C74.7089 39.7499 75.9846 39.5098 76.9489 38.613C76.9489 38.613 78.1552 36.5437 80.3971 36.1647C82.639 35.7858 82.397 36.8889 82.397 36.8889C82.397 36.8889 80.9149 36.6131 79.8455 37.4761C78.7762 38.3372 78.3635 39.097 78.9826 39.3034C79.6035 39.5098 81.9824 38.0614 81.9824 38.0614C81.9824 38.0614 82.6034 39.4403 85.0516 39.476C87.4999 39.5098 88.6724 39.5454 90.2239 38.9938C90.2239 38.9938 90.4303 39.5116 89.6723 39.7518C88.9144 39.9938 83.9485 41.3727 81.8117 39.3372C81.8117 39.3372 77.7781 41.6466 77.0183 39.4403C77.0183 39.4403 75.0879 40.853 73.5026 40.5097C71.9173 40.1645 73.4332 38.5792 73.4332 38.5792C73.4332 38.5792 73.8478 37.8551 73.5364 37.7519C73.2268 37.6487 72.1218 38.3035 71.7091 38.9582C71.7091 38.9582 69.2965 45.5432 68.7093 45.8884C68.1239 46.2336 68.0208 46.0947 67.8482 45.7495C67.6756 45.4043 67.3998 45.1642 68.0545 43.6127C68.7093 42.0612 69.9156 40.3709 70.0544 40.1645C70.1932 39.9581 70.7448 38.3372 70.7448 38.3372C70.7448 38.3372 68.3322 40.5791 66.7113 40.5435C65.0904 40.5097 65.4018 39.3709 65.4693 39.0614C65.5387 38.7518 66.3323 37.2679 66.2629 37.0277C66.1935 36.7857 65.7807 36.8551 65.6419 37.0615C65.5031 37.2679 63.2968 39.9581 61.5727 40.3015C59.8486 40.6466 58.9875 40.0257 58.8843 39.8193C58.8843 39.8193 57.0571 40.7855 55.9877 40.1289C54.9184 39.4741 55.333 38.129 54.333 38.129C53.3331 38.129 51.4026 40.369 50.8173 40.3352C50.232 40.3015 50.5077 39.6805 50.6803 39.1627C50.8529 38.6449 55.438 26.5781 55.438 26.5781ZM37.7768 41.6447C37.7768 41.6447 36.7769 42.1963 37.638 42.4026C38.4991 42.609 47.1871 42.0912 48.0501 40.9543C48.9112 39.8156 47.568 36.5418 47.4985 35.9903C47.4291 35.4387 45.4311 29.1333 45.5681 27.82C45.7407 26.1653 47.0502 25.1654 48.6017 25.9571C50.1532 26.7507 51.6353 27.957 51.5658 29.2665C51.4964 30.576 50.8773 30.5422 50.8773 30.5422C50.8773 30.5422 51.0499 29.7149 50.3258 28.955C49.6016 28.1971 48.2039 26.7282 47.0164 27.0246C46.0502 27.2666 47.1346 29.5854 47.5342 31.1969C48.3278 34.4031 49.3615 37.4029 49.671 39.2996C49.8905 40.6448 49.7048 41.9543 48.3615 42.5396C46.6506 43.2844 39.9493 44.0573 36.8801 43.5733C36.2328 43.472 35.156 43.5395 35.2591 42.746C35.3623 41.9524 36.5986 41.5509 36.805 41.5171C37.0114 41.4834 37.9025 41.2489 38.1445 41.2826C38.3865 41.3164 38.3959 41.4027 38.2233 41.4702C38.0507 41.5397 37.7749 41.6428 37.7749 41.6428" fill="var(--fill-0, white)"/>
</g>
</svg>
