<svg xmlns="http://www.w3.org/2000/svg" width="100%" height="100%" viewBox="0 0 68.8 68.0" preserveAspectRatio="xMidYMid meet" overflow="visible" style="display:block"><svg x="35.790" y="20.828" width="22.780" height="22.508" viewBox="0 0 22.777 22.5121" preserveAspectRatio="none" overflow="visible">
<g id="Group">
<path id="Vector" d="M10.3253 0L9.6375 0.679777L22.0892 12.9867L22.777 12.3069L10.3253 0Z" fill="var(--fill-0, white)"/>
<path id="Vector_2" d="M8.94872 1.36098L8.26094 2.04076L20.7126 14.3477L21.4004 13.6679L8.94872 1.36098Z" fill="var(--fill-0, white)"/>
<path id="Vector_3" d="M7.57215 2.72197L6.88438 3.40175L19.3361 15.7087L20.0238 15.0289L7.57215 2.72197Z" fill="var(--fill-0, white)"/>
<path id="Vector_4" d="M6.19561 4.08168L18.6475 16.3888L17.2707 17.7488L4.81875 5.44168L6.19561 4.08168Z" fill="var(--fill-0, white)"/>
<path id="Vector_5" d="M4.12989 6.12293L2.75312 7.48368L15.2048 19.7906L16.5816 18.4298L4.12989 6.12293Z" fill="var(--fill-0, white)"/>
<path id="Vector_6" d="M2.06555 8.16325L1.37656 8.84423L13.8283 21.1511L14.5173 20.4702L2.06555 8.16325Z" fill="var(--fill-0, white)"/>
<path id="Vector_7" d="M0.68899 9.52419L0 10.2052L12.4517 22.5121L13.1407 21.8311L0.68899 9.52419Z" fill="var(--fill-0, white)"/>
</g>
</svg><svg x="10.231" y="9.255" width="35.191" height="34.782" viewBox="0 0 35.1919 34.7822" preserveAspectRatio="none" overflow="visible">
<g id="Group">
<path id="Vector" d="M24.1785 0L0 23.8974L0.687774 24.5772L24.8663 0.679777L24.1785 0Z" fill="var(--fill-0, white)"/>
<path id="Vector_2" d="M25.5551 1.36089L1.37656 25.2583L2.06434 25.938L26.2429 2.04067L25.5551 1.36089Z" fill="var(--fill-0, white)"/>
<path id="Vector_3" d="M26.9332 2.72134L2.75469 26.6187L4.81923 28.6593L28.9978 4.76187L26.9332 2.72134Z" fill="var(--fill-0, white)"/>
<path id="Vector_4" d="M29.6863 5.44238L5.50781 29.3398L6.88458 30.7005L31.0631 6.80314L29.6863 5.44238Z" fill="var(--fill-0, white)"/>
<path id="Vector_5" d="M31.7504 7.48389L7.57187 31.3813L9.63641 33.4218L33.8149 9.52442L31.7504 7.48389Z" fill="var(--fill-0, white)"/>
<path id="Vector_6" d="M34.5048 10.2053L35.1919 10.8845L11.0139 34.7822L10.325 34.1014L34.5048 10.2053Z" fill="var(--fill-0, white)"/>
<path id="Vector_7" d="M28.3086 4.08195L28.9966 4.76195L4.81769 28.6589L4.12969 27.9789L28.3086 4.08195Z" fill="var(--fill-0, white)"/>
</g>
</svg><svg x="10.492" y="48.797" width="42.450" height="4.060" viewBox="0 0 42.4545 4.05452" preserveAspectRatio="none" overflow="visible">
<g id="Group">
<path id="Vector" d="M0.65876 2.00602H1.5996C1.63572 2.00602 1.677 2.00432 1.72258 2.00092C1.76816 1.99752 1.8103 1.98987 1.84814 1.97967C1.95736 1.95247 2.04336 1.90487 2.10614 1.83687C2.16892 1.76802 2.21364 1.69067 2.2403 1.60482C2.26696 1.51812 2.27986 1.43397 2.27986 1.35067C2.27986 1.26737 2.26696 1.18237 2.2403 1.09567C2.21364 1.00812 2.16892 0.930769 2.10614 0.861919C2.04336 0.793069 1.95736 0.74547 1.84814 0.71912C1.80944 0.70807 1.76816 0.701271 1.72258 0.698721C1.677 0.696171 1.63572 0.694467 1.5996 0.694467H0.65876V2.00772V2.00602ZM0 3.97377V0.0824707H1.62626C1.66496 0.0824707 1.71398 0.0841697 1.77418 0.0867197C1.83438 0.0892697 1.89028 0.0952163 1.94102 0.104566C2.16892 0.138566 2.35726 0.213368 2.50518 0.328968C2.65396 0.444568 2.76404 0.589918 2.83628 0.765018C2.90852 0.940968 2.94464 1.13562 2.94464 1.34982C2.94464 1.56402 2.90852 1.75612 2.83542 1.93207C2.76232 2.10802 2.65138 2.25337 2.50346 2.36812C2.35554 2.48287 2.16806 2.55852 1.94188 2.59252C1.89114 2.59932 1.83438 2.60527 1.77332 2.60867C1.71226 2.61207 1.66324 2.61377 1.62712 2.61377H0.65962V3.97292H0.000860184L0 3.97377Z" fill="var(--fill-0, white)"/>
<path id="Vector_2" d="M3.72824 3.13057V2.52282H5.79482V3.13057H3.72824ZM3.03594 3.97377L4.27692 0.0824707H5.24184L6.48282 3.97377H5.80514L4.67854 0.482817H4.82646L3.71362 3.97377H3.03594Z" fill="var(--fill-0, white)"/>
<path id="Vector_3" d="M8.4179 4.05451C8.1298 4.05451 7.87094 4.00521 7.64046 3.90576C7.40998 3.80631 7.22078 3.66521 7.072 3.47991C6.92322 3.29546 6.82948 3.07616 6.78906 2.82201L7.47276 2.71916C7.53124 2.94951 7.65078 3.12801 7.83224 3.25381C8.0137 3.37961 8.22268 3.44336 8.46004 3.44336C8.60022 3.44336 8.73266 3.42211 8.8565 3.37876C8.98034 3.33541 9.08096 3.27251 9.15836 3.18921C9.23576 3.10676 9.27446 3.00476 9.27446 2.88406C9.27446 2.82966 9.265 2.78036 9.24694 2.73446C9.22888 2.68856 9.20222 2.64776 9.1661 2.61121C9.13084 2.57551 9.08526 2.54236 9.02936 2.51261C8.97346 2.48286 8.90982 2.45736 8.83672 2.43526L7.81934 2.13776C7.73162 2.11226 7.63788 2.07911 7.5364 2.03661C7.43492 1.99411 7.33946 1.93546 7.24916 1.86066C7.15886 1.78586 7.0849 1.69066 7.02814 1.57421C6.97052 1.45776 6.94214 1.31411 6.94214 1.14326C6.94214 0.89251 7.00664 0.682561 7.13478 0.512561C7.26292 0.342561 7.43664 0.215061 7.65422 0.130061C7.8718 0.0450611 8.11432 0.00425919 8.38006 0.00595919C8.6501 0.00765919 8.89004 0.0535579 9.1016 0.142808C9.31316 0.232058 9.48946 0.361258 9.63222 0.530408C9.77412 0.699558 9.87474 0.90441 9.93322 1.14411L9.22544 1.26566C9.1962 1.12881 9.1403 1.01236 9.05688 0.91546C8.97432 0.81941 8.87284 0.745458 8.7533 0.695308C8.63376 0.645158 8.50648 0.617957 8.37232 0.614557C8.24074 0.612857 8.11948 0.632411 8.00768 0.672361C7.89588 0.713161 7.80558 0.77096 7.73678 0.84661C7.66884 0.92226 7.63444 1.01066 7.63444 1.11181C7.63444 1.20701 7.66368 1.28521 7.72216 1.34556C7.78064 1.40591 7.85288 1.45351 7.93974 1.48836C8.0266 1.52321 8.11432 1.55296 8.20376 1.57591L8.90896 1.77056C9.00528 1.79606 9.11364 1.83006 9.23404 1.87341C9.35444 1.91676 9.46968 1.97711 9.58148 2.05446C9.69242 2.13181 9.78444 2.23381 9.85582 2.35961C9.92806 2.48541 9.96418 2.64606 9.96418 2.84071C9.96418 3.03536 9.92204 3.21981 9.8369 3.37196C9.75176 3.52411 9.63738 3.65076 9.49376 3.75191C9.35014 3.85306 9.18502 3.92871 9.00012 3.97886C8.81522 4.02901 8.62172 4.05451 8.41876 4.05451H8.4179Z" fill="var(--fill-0, white)"/>
<path id="Vector_4" d="M11.0664 3.13057V2.52282H13.133V3.13057H11.0664ZM10.375 3.97377L11.616 0.0824707H12.5809L13.8219 3.97377H13.1442L12.0176 0.482817H12.1655L11.0527 3.97377H10.375Z" fill="var(--fill-0, white)"/>
<path id="Vector_5" d="M14.4078 3.97377V0.0824707H15.0743L16.901 2.82542V0.0824707H17.5675L17.5649 3.97377H16.901L15.0743 1.23082L15.0717 3.97377H14.4078Z" fill="var(--fill-0, white)"/>
<path id="Vector_6" d="M20.0506 4.0545C19.7952 4.0545 19.5561 4.0103 19.3334 3.92105C19.1098 3.8318 18.9146 3.7009 18.746 3.5275C18.5775 3.35495 18.4459 3.14245 18.3513 2.89085C18.2567 2.63925 18.2094 2.35195 18.2094 2.02725C18.2094 1.60225 18.2894 1.23845 18.4502 0.936702C18.611 0.634952 18.8303 0.403748 19.1089 0.242248C19.3876 0.0807479 19.7023 0 20.0524 0C20.5374 0 20.921 0.111349 21.2048 0.334049C21.4886 0.556749 21.6803 0.8687 21.7801 1.2699L21.1076 1.3753C21.0328 1.14495 20.9106 0.960499 20.7412 0.822799C20.5718 0.685099 20.3559 0.61625 20.0936 0.61625C19.8296 0.61285 19.6095 0.6698 19.4349 0.78625C19.2603 0.90355 19.1279 1.06845 19.0401 1.28095C18.9516 1.49345 18.9077 1.7425 18.9077 2.0264C18.9077 2.3103 18.9516 2.5585 19.0393 2.76845C19.127 2.9784 19.2586 3.1416 19.434 3.2589C19.6095 3.3762 19.8296 3.43655 20.0945 3.43995C20.2932 3.44165 20.4669 3.40595 20.6165 3.33285C20.7662 3.25975 20.8883 3.14925 20.9829 3.0005C21.0775 2.85175 21.1411 2.6656 21.1747 2.4429H20.4806V1.93205H21.8747C21.8781 1.96095 21.8807 2.00345 21.8833 2.0587C21.885 2.1148 21.8859 2.14795 21.8859 2.159C21.8859 2.5262 21.8128 2.8526 21.6657 3.1382C21.5187 3.4238 21.3088 3.64735 21.0353 3.8097C20.7619 3.97205 20.4351 4.0528 20.0541 4.0528L20.0506 4.0545Z" fill="var(--fill-0, white)"/>
<path id="Vector_7" d="M23.7625 3.97377V0.0824707H24.4187L24.4213 3.36262L26.1576 3.36517L26.1602 3.97377H23.7625Z" fill="var(--fill-0, white)"/>
<path id="Vector_8" d="M26.7172 3.97377V0.0824707H27.3734L27.3759 1.72042L29.2404 1.72297V0.0824707H29.8966V3.97377H29.2404V2.33072L27.3734 2.32817L27.3759 3.97377H26.7172Z" fill="var(--fill-0, white)"/>
<path id="Vector_9" d="M31.1743 3.13057V2.52282H33.2408V3.13057H31.1743ZM30.4828 3.97377L31.7238 0.0824707H32.6887L33.9297 3.97377H33.252L32.1254 0.482817H32.2733L31.1605 3.97377H30.4828Z" fill="var(--fill-0, white)"/>
<path id="Vector_10" d="M34.5156 3.97377V0.0824707H35.1082L36.4704 2.83902L37.8318 0.0824707H38.4252V3.97377H37.8094V1.47987L36.6011 3.97377H36.3388L35.1331 1.47987V3.97377H34.5156Z" fill="var(--fill-0, white)"/>
<path id="Vector_11" d="M40.8695 4.05452C40.5556 4.05452 40.2804 3.99162 40.0422 3.86497C39.804 3.73917 39.6182 3.56152 39.4841 3.33287C39.3499 3.10422 39.2828 2.83562 39.2828 2.52792V0.0875705L39.9502 0.0824707V2.51177C39.9502 2.65797 39.9751 2.78802 40.025 2.90362C40.0749 3.01922 40.1428 3.11697 40.2288 3.19687C40.3148 3.27677 40.4129 3.33797 40.5238 3.37962C40.6347 3.42127 40.75 3.44167 40.8687 3.44167C40.9873 3.44167 41.1069 3.42042 41.217 3.37792C41.327 3.33542 41.4251 3.27422 41.5111 3.19432C41.5971 3.11442 41.6642 3.01667 41.7132 2.90107C41.7622 2.78547 41.7871 2.65627 41.7871 2.51177V0.0824707H42.4545V2.52792C42.4545 2.83562 42.3874 3.10422 42.2533 3.33287C42.1191 3.56152 41.9333 3.73917 41.6951 3.86497C41.4569 3.99077 41.1817 4.05452 40.8678 4.05452H40.8695Z" fill="var(--fill-0, white)"/>
</g>
</svg><svg x="14.799" y="54.835" width="33.836" height="3.910" viewBox="0 0 33.839 3.9117" preserveAspectRatio="none" overflow="visible">
<g id="Group">
<path id="Vector" d="M1.9436 0.464967H0.44892V1.77397H1.8318V2.17262H0.44892V3.84797H0V0.0637695H1.9436V0.464967Z" fill="var(--fill-0, white)"/>
<path id="Vector_2" d="M4.30576 3.9117C3.7631 3.9117 3.32794 3.7349 3.00114 3.3813C2.67434 3.0277 2.51094 2.56785 2.51094 2.0009C2.51094 1.3923 2.67692 0.906947 3.0106 0.543997C3.34342 0.181897 3.79664 0 4.3694 0C4.8983 0 5.324 0.175947 5.64736 0.527847C5.97072 0.879747 6.13154 1.3396 6.13154 1.90825C6.13154 2.52535 5.96642 3.0141 5.63532 3.3728C5.30422 3.7315 4.86132 3.91085 4.30576 3.91085V3.9117ZM4.33758 0.402048C3.9351 0.402048 3.6083 0.545698 3.35804 0.832148C3.10692 1.1186 2.98136 1.49515 2.98136 1.9618C2.98136 2.42845 3.10348 2.8033 3.34858 3.0872C3.59368 3.3711 3.91274 3.51305 4.30576 3.51305C4.72544 3.51305 5.05654 3.3779 5.29906 3.10675C5.54072 2.8356 5.66198 2.4565 5.66198 1.96945C5.66198 1.4824 5.54416 1.08375 5.30938 0.810898C5.0746 0.538048 4.75038 0.402048 4.33758 0.402048Z" fill="var(--fill-0, white)"/>
<path id="Vector_3" d="M9.77887 2.31711C9.77887 3.37961 9.29383 3.91086 8.32375 3.91086C7.35367 3.91086 6.92969 3.40001 6.92969 2.37746V0.0629114H7.37861V2.34771C7.37861 3.12376 7.70971 3.51136 8.37191 3.51136C9.03411 3.51136 9.32995 3.13651 9.32995 2.38681V0.0620605H9.77887V2.31541V2.31711Z" fill="var(--fill-0, white)"/>
<path id="Vector_4" d="M13.914 3.84797H13.3636L11.3933 0.832168C11.3434 0.756518 11.3021 0.677469 11.2703 0.594169H11.254C11.2686 0.674919 11.2755 0.848318 11.2755 1.11437V3.84797H10.8266V0.0637695H11.4088L13.3257 3.03197C13.4057 3.15522 13.4573 3.23937 13.4805 3.28527H13.4908C13.4728 3.17647 13.4642 2.99032 13.4642 2.72852V0.0637695H13.9131V3.84797H13.914Z" fill="var(--fill-0, white)"/>
<path id="Vector_5" d="M15.0102 3.84797V0.0637695H16.0672C17.4165 0.0637695 18.0908 0.678315 18.0908 1.90827C18.0908 2.49222 17.9033 2.96142 17.5283 3.31587C17.1534 3.67032 16.652 3.84797 16.0242 3.84797H15.0094H15.0102ZM15.4592 0.464967V3.44677H16.0302C16.5324 3.44677 16.9229 3.31417 17.2024 3.04812C17.4819 2.78207 17.6212 2.40636 17.6212 1.91846C17.6212 0.949465 17.1 0.464116 16.0569 0.464116H15.4592V0.464967Z" fill="var(--fill-0, white)"/>
<path id="Vector_6" d="M21.7674 3.84797H21.2712L20.8653 2.78717H19.2424L18.8606 3.84797H18.3609L19.829 0.0637695H20.2934L21.7674 3.84797ZM20.7182 2.38852L20.1171 0.776065C20.0973 0.723365 20.0775 0.639216 20.0586 0.522766H20.0483C20.0302 0.629866 20.0096 0.714865 19.9872 0.776065L19.3921 2.38852H20.7191H20.7182Z" fill="var(--fill-0, white)"/>
<path id="Vector_7" d="M24.2956 0.464967H23.1905V3.84797H22.7416V0.464967H21.6391V0.0637695H24.2956V0.464967Z" fill="var(--fill-0, white)"/>
<path id="Vector_8" d="M25.4364 3.84797H24.9875V0.0637695H25.4364V3.84797Z" fill="var(--fill-0, white)"/>
<path id="Vector_9" d="M28.0799 3.9117C27.5372 3.9117 27.1021 3.7349 26.7761 3.3813C26.4493 3.0277 26.2859 2.56785 26.2859 2.0009C26.2859 1.3923 26.4519 0.906947 26.7856 0.543997C27.1184 0.181897 27.5716 0 28.1444 0C28.6733 0 29.099 0.175947 29.4224 0.527847C29.7457 0.879747 29.9065 1.3396 29.9065 1.90825C29.9065 2.52535 29.7414 3.0141 29.4103 3.3728C29.0792 3.7315 28.6363 3.91085 28.0808 3.91085L28.0799 3.9117ZM28.1117 0.402048C27.7092 0.402048 27.3833 0.545698 27.1322 0.832148C26.8811 1.1186 26.7555 1.49515 26.7555 1.9618C26.7555 2.42845 26.8776 2.8033 27.1227 3.0872C27.3678 3.3711 27.6869 3.51305 28.0799 3.51305C28.4996 3.51305 28.8307 3.3779 29.0732 3.10675C29.3157 2.8356 29.4361 2.4565 29.4361 1.96945C29.4361 1.4824 29.3183 1.08375 29.0835 0.810898C28.8487 0.538048 28.5245 0.402048 28.1117 0.402048Z" fill="var(--fill-0, white)"/>
<path id="Vector_10" d="M33.839 3.84797H33.2886L31.3183 0.832168C31.2684 0.756518 31.2271 0.677469 31.1953 0.594169H31.179C31.1936 0.674919 31.2005 0.848318 31.2005 1.11437V3.84797H30.7516V0.0637695H31.3338L33.2507 3.03197C33.3307 3.15522 33.3823 3.23937 33.4055 3.28527H33.4158C33.3978 3.17647 33.3892 2.99032 33.3892 2.72852V0.0637695H33.8381V3.84797H33.839Z" fill="var(--fill-0, white)"/>
</g>
</svg></svg>